<?xml version="1.0" encoding="UTF-8"?>
<svg id="Layer_1" xmlns="http://www.w3.org/2000/svg" version="1.1" viewBox="0 0 441.26 80.01">
  <!-- Generator: Adobe Illustrator 29.7.1, SVG Export Plug-In . SVG Version: 2.1.1 Build 8)  -->
  <defs>
    <style>
      .st0 {
        fill: #fff;
      }
    </style>
  </defs>
  <g>
    <rect class="st0" x="98.37" width="56.67" height="11.85"/>
    <rect class="st0" x="120.78" y="22.68" width="11.85" height="57.33"/>
  </g>
  <g>
    <rect class="st0" y="0" width="56.67" height="11.85"/>
    <rect class="st0" y="68.16" width="56.67" height="11.85"/>
    <rect class="st0" y="34.08" width="34.15" height="11.85"/>
  </g>
  <g>
    <rect class="st0" x="384.59" y="0" width="56.67" height="11.85"/>
    <rect class="st0" x="384.59" y="68.16" width="56.67" height="11.85"/>
    <rect class="st0" x="384.59" y="34.08" width="34.15" height="11.85"/>
  </g>
  <path class="st0" d="M243.41,0v50.37c0,9.56-7.82,17.39-17.39,17.39s-17.39-7.83-17.39-17.39V0h-11.19v51.56c0,15.64,12.8,28.44,28.44,28.44s28.44-12.8,28.44-28.44V0h-10.93.02Z"/>
  <path class="st0" d="M299.71,0h0v11.65h1.13c15.59,0,28.35,12.76,28.35,28.35h0c0,15.59-12.76,28.35-28.35,28.35h-1.13v11.65h0c22,0,40-18,40-40h0C339.71,18.01,321.71,0,299.71,0h0Z"/>
</svg>